<svg version="1.1" id="Layer_1" xmlns="http://www.w3.org/2000/svg" xmlns:xlink="http://www.w3.org/1999/xlink" x="0px" y="0px"
	 width="100%" viewBox="0 0 376 227" enable-background="new 0 0 376 227" xml:space="preserve">
<path fill="#000000" opacity="1.000000" stroke="none" 
	d="
M276.000000,228.000000 
	C184.000000,228.000000 92.500000,228.000000 1.000000,228.000000 
	C1.000000,152.333328 1.000000,76.666664 1.000000,1.000000 
	C126.333336,1.000000 251.666672,1.000000 377.000000,1.000000 
	C377.000000,76.666664 377.000000,152.333328 377.000000,228.000000 
	C343.500000,228.000000 310.000000,228.000000 276.000000,228.000000 
M297.748901,212.603302 
	C298.237579,206.050476 298.237396,206.060928 291.909485,205.941299 
	C290.948364,205.923126 289.990051,205.756241 289.106293,205.438919 
	C289.106293,205.438919 288.974945,205.247742 289.750610,204.778717 
	C289.832001,191.097565 289.928162,177.416458 289.949890,163.735199 
	C289.950958,163.073364 289.297424,162.410477 289.051239,161.499496 
	C289.051239,161.499496 288.937622,161.255783 289.005219,160.560043 
	C288.950562,160.333542 288.895874,160.107040 288.664124,159.239670 
	C286.213776,156.035645 284.308380,151.993637 278.651001,152.262833 
	C264.397583,152.231552 250.144180,152.200287 235.238419,152.355820 
	C232.436035,154.394501 227.869247,154.722458 227.298782,160.160660 
	C227.199890,174.675278 227.091034,189.189880 227.047318,203.704666 
	C227.045929,204.168015 227.713043,204.633392 228.040192,205.849854 
	C228.192261,210.284637 231.349411,212.560089 234.917343,212.867401 
	C243.614883,213.616531 252.380920,213.570206 262.034332,213.960068 
	C272.402893,213.974182 282.771637,214.023239 293.139709,213.958496 
	C294.445526,213.950348 295.747589,213.343262 297.748901,212.603302 
M358.194702,152.384384 
	C358.059998,161.278610 357.925293,170.172821 357.491516,178.998703 
	C357.491516,178.998703 357.207794,179.115509 356.229431,179.024323 
	C341.420929,179.056351 326.612457,179.088379 311.484650,178.991623 
	C311.484650,178.991623 311.144012,179.041992 310.999115,178.105881 
	C310.999298,170.565826 311.055573,163.024887 310.937073,155.486694 
	C310.919952,154.397278 310.063232,153.321045 308.844818,152.030960 
	C307.039703,152.101273 305.234619,152.171570 302.474854,152.087433 
	C302.314606,152.712021 302.015106,153.336441 302.014343,153.961212 
	C301.992065,172.675522 301.984161,191.389923 302.044830,210.104080 
	C302.048004,211.083862 302.673737,212.061630 303.377777,213.730881 
	C305.557953,213.502609 307.738098,213.274323 310.758667,212.720886 
	C310.808655,203.910294 310.858673,195.099701 311.574005,186.068054 
	C312.040375,186.074707 312.506775,186.081360 313.393646,186.847519 
	C325.770599,186.897263 338.147552,186.964996 350.524475,186.956680 
	C351.359406,186.956116 352.193939,186.381836 353.772675,186.038025 
	C355.180328,186.394409 356.587982,186.750778 358.009216,188.024506 
	C358.005798,195.390823 357.953125,202.757751 358.047180,210.122833 
	C358.062958,211.358994 358.714020,212.587036 359.897552,213.956100 
	C361.566925,213.915543 363.236328,213.874985 365.724213,213.652328 
	C366.127319,208.434311 366.793732,203.220566 366.878876,197.997375 
	C367.057800,187.020950 366.119812,175.961685 367.163483,165.082550 
	C368.165436,154.638031 367.203766,151.763550 358.194702,152.384384 
M165.859390,206.508759 
	C165.571274,206.320847 165.283157,206.132935 164.934128,205.403519 
	C164.873688,205.232239 164.813232,205.060944 164.922241,203.978622 
	C164.947861,188.098694 164.995972,172.218689 164.951614,156.338959 
	C164.948441,155.205399 164.267532,154.073730 163.551514,152.292297 
	C161.442276,152.821213 159.333038,153.350143 157.028488,154.828415 
	C157.075119,171.572250 157.121750,188.316101 157.052750,205.776260 
	C158.633011,210.548935 161.795441,213.172577 167.383759,213.835007 
	C180.934631,213.889297 194.485504,213.957047 208.036377,213.957962 
	C208.709488,213.958008 209.382629,213.377090 210.828857,213.034424 
	C216.920547,212.515594 218.248337,208.022934 219.793732,202.666000 
	C219.558960,195.927933 219.094803,189.187988 219.149780,182.452286 
	C219.212845,174.726822 219.867645,167.007767 220.023071,159.281052 
	C220.181549,151.402161 219.874512,151.257889 210.676529,152.545929 
	C211.091141,157.986267 211.511337,163.499893 211.153717,169.398575 
	C211.157913,180.571655 211.162094,191.744736 211.043137,203.724075 
	C209.624527,204.494781 208.227875,205.878128 206.783508,205.929901 
	C200.600891,206.151505 194.400665,205.837509 188.213547,205.989716 
	C180.800568,206.172089 173.394409,206.630234 165.988541,207.013107 
	C165.988541,207.013107 166.032425,207.007126 165.859390,206.508759 
M138.670807,152.240723 
	C124.423553,152.226181 110.176300,152.211639 95.215439,152.108582 
	C90.306252,153.588318 87.560783,156.879913 86.178520,162.364517 
	C86.120697,175.282867 86.048088,188.201218 86.047569,201.119568 
	C86.047546,201.783600 86.665215,202.447662 86.986168,203.874786 
	C88.900749,210.943085 90.742363,212.642014 97.378990,213.849701 
	C110.607162,213.899872 123.835342,213.963730 137.063492,213.959656 
	C137.723404,213.959457 138.383133,213.369614 139.827301,213.030701 
	C145.760117,212.954987 147.811295,208.998276 149.185623,203.285965 
	C149.408264,202.386871 149.837402,201.484222 149.822021,200.589203 
	C149.639252,189.943329 149.464386,179.296158 149.110855,168.655167 
	C149.012207,165.685822 148.334549,162.735718 147.976944,159.075623 
	C145.966080,155.676163 144.184494,151.941833 138.670807,152.240723 
M25.647675,178.221939 
	C25.440813,172.966995 25.034859,167.709244 25.108810,162.458252 
	C25.147350,159.721756 27.121754,158.901733 29.895624,158.938568 
	C41.365734,159.090942 52.839012,159.002579 64.311127,159.008041 
	C67.396385,159.009506 69.958763,159.342880 71.339455,163.028305 
	C71.782135,164.209930 75.162239,164.291092 77.198425,164.875732 
	C77.573784,163.192871 78.536118,161.386169 78.212189,159.850845 
	C77.313797,155.592758 73.964546,153.508896 69.144279,152.004044 
	C54.739498,152.066391 40.334717,152.128738 25.225319,152.094757 
	C15.417540,156.005676 15.773805,164.428299 15.915727,172.840988 
	C16.034870,179.903458 19.181063,184.650131 26.907974,186.993134 
	C34.291492,186.995209 41.676239,187.074753 49.057880,186.958099 
	C51.706600,186.916245 54.347847,186.401413 57.904823,186.020081 
	C58.237522,186.014969 58.570244,186.010971 58.902916,186.004608 
	C73.840416,185.719147 70.881233,187.309265 70.994171,198.199905 
	C71.082893,206.755295 71.015884,206.755997 62.493717,206.144318 
	C50.315380,206.096313 38.137043,206.048309 25.723265,205.324448 
	C23.562748,202.371933 20.900452,200.986847 17.277992,202.522095 
	C16.925480,208.465836 19.603666,212.119598 25.357340,213.847275 
	C39.251705,213.896881 53.146072,213.959473 67.040421,213.956375 
	C67.708977,213.956223 68.377403,213.377380 69.825485,213.040085 
	C74.887177,212.230377 78.801079,208.716080 78.943451,204.519211 
	C79.100716,199.883194 79.146767,195.230469 78.941727,190.598282 
	C78.659355,184.219070 74.824692,180.253983 68.672699,179.258850 
	C54.449745,179.169510 40.226795,179.080185 25.647675,178.221939 
M201.840561,21.602705 
	C196.569107,19.076250 191.980301,14.709921 185.175903,18.830887 
	C168.660950,28.832838 151.811966,38.282177 135.172668,48.081673 
	C133.811798,48.883133 132.189850,50.603073 132.103607,51.984539 
	C131.568436,60.556530 131.437622,69.153763 130.415894,78.067558 
	C127.191284,83.593269 127.893379,88.799675 131.920822,92.779053 
	C130.373184,102.768242 131.395355,105.375534 139.534882,110.143547 
	C154.507095,118.914078 169.605774,127.468948 184.565491,136.260483 
	C188.803680,138.751175 192.574570,139.833588 197.310226,137.043030 
	C212.151993,128.297272 227.287857,120.050064 242.115997,111.282028 
	C245.822723,109.090210 250.983734,107.690193 251.093735,101.857529 
	C251.324310,89.629463 251.527573,77.400871 251.986099,64.304932 
	C252.326508,60.983532 253.199997,57.596287 252.800995,54.366222 
	C252.573288,52.522930 250.271011,50.935905 248.303604,48.840378 
	C245.687729,47.248047 243.066010,45.665203 240.457062,44.061600 
	C232.893204,39.412430 225.334473,34.754917 217.895737,29.402607 
	C213.636414,24.755745 209.191696,20.523529 201.840561,21.602705 
z"/>
<path fill="#DC5C40" opacity="1.000000" stroke="none" 
	d="
M217.773727,30.100681 
	C225.334473,34.754917 232.893204,39.412430 240.457062,44.061600 
	C243.066010,45.665203 245.687729,47.248047 248.721161,49.298374 
	C248.576721,50.585735 248.205154,51.742336 247.424805,52.196430 
	C229.725754,62.495747 211.999802,72.749489 194.207397,82.886276 
	C192.989059,83.580399 190.936035,83.889381 189.744919,83.343613 
	C186.504562,81.858879 183.518585,79.818977 179.939209,77.708702 
	C195.904099,68.430794 211.199692,59.541847 227.110001,50.295650 
	C224.479263,48.688705 222.463486,47.797886 220.872482,46.417488 
	C217.100525,43.144852 213.879333,43.905014 209.829300,46.372684 
	C197.895370,53.643978 185.523514,60.198746 173.622635,67.520882 
	C169.329437,70.162323 166.128525,70.343994 161.935745,67.561249 
	C156.373123,63.869328 150.353180,60.866463 143.857376,57.186615 
	C143.857376,60.274406 144.150375,62.312862 143.800705,64.234360 
	C142.869858,69.349289 145.278793,71.924736 149.604996,74.291115 
	C162.305313,81.238022 174.803513,88.563744 187.238373,95.980049 
	C190.369278,97.847343 192.683731,97.763680 195.805252,95.925774 
	C212.724426,85.964012 229.770233,76.216438 246.828430,66.493347 
	C248.254089,65.680733 250.094406,65.595619 251.742065,65.172501 
	C251.527573,77.400871 251.324310,89.629463 251.093735,101.857529 
	C250.983734,107.690193 245.822723,109.090210 242.115997,111.282028 
	C227.287857,120.050064 212.151993,128.297272 197.310226,137.043030 
	C192.574570,139.833588 188.803680,138.751175 184.565491,136.260483 
	C169.605774,127.468948 154.507095,118.914078 139.534882,110.143547 
	C131.395355,105.375534 130.373184,102.768242 132.440247,92.510498 
	C151.266327,102.746452 169.573425,113.250160 187.878967,123.756599 
	C189.877213,124.903481 191.512955,125.939758 194.160080,124.367607 
	C208.169281,116.047417 222.369553,108.049469 236.442581,99.835289 
	C237.570175,99.177132 238.893570,97.786148 238.995300,96.635735 
	C239.321564,92.945900 239.116562,89.209084 239.116562,84.807877 
	C236.797241,86.056183 235.345383,86.792763 233.935974,87.603165 
	C220.964951,95.061401 207.954849,102.453835 195.074066,110.065025 
	C192.448364,111.616554 190.513962,111.701561 187.924850,110.054703 
	C182.878143,106.844604 177.608856,103.980934 172.399704,101.030373 
	C158.666504,93.251625 144.916138,85.503143 131.172607,77.742615 
	C131.437622,69.153763 131.568436,60.556530 132.103607,51.984539 
	C132.189850,50.603073 133.811798,48.883133 135.172668,48.081673 
	C151.811966,38.282177 168.660950,28.832838 185.175903,18.830887 
	C191.980301,14.709921 196.569107,19.076250 201.972229,22.302006 
	C193.420563,28.183996 184.755753,33.398125 176.047729,38.539021 
	C169.537323,42.382515 162.971176,46.131546 155.909668,50.224102 
	C158.549011,51.760391 160.571732,52.639149 162.236191,53.966995 
	C166.037674,56.999664 169.271057,56.444031 173.349625,53.945492 
	C185.820541,46.305759 198.563492,39.105247 211.296799,31.903944 
	C213.190140,30.833164 215.601837,30.678940 217.773727,30.100681 
z"/>
<path fill="#FEF8F4" opacity="1.000000" stroke="none" 
	d="
M251.864075,64.738716 
	C250.094406,65.595619 248.254089,65.680733 246.828430,66.493347 
	C229.770233,76.216438 212.724426,85.964012 195.805252,95.925774 
	C192.683731,97.763680 190.369278,97.847343 187.238373,95.980049 
	C174.803513,88.563744 162.305313,81.238022 149.604996,74.291115 
	C145.278793,71.924736 142.869858,69.349289 143.800705,64.234360 
	C144.150375,62.312862 143.857376,60.274406 143.857376,57.186615 
	C150.353180,60.866463 156.373123,63.869328 161.935745,67.561249 
	C166.128525,70.343994 169.329437,70.162323 173.622635,67.520882 
	C185.523514,60.198746 197.895370,53.643978 209.829300,46.372684 
	C213.879333,43.905014 217.100525,43.144852 220.872482,46.417488 
	C222.463486,47.797886 224.479263,48.688705 227.110001,50.295650 
	C211.199692,59.541847 195.904099,68.430794 179.939209,77.708702 
	C183.518585,79.818977 186.504562,81.858879 189.744919,83.343613 
	C190.936035,83.889381 192.989059,83.580399 194.207397,82.886276 
	C211.999802,72.749489 229.725754,62.495747 247.424805,52.196430 
	C248.205154,51.742336 248.576721,50.585735 249.020782,49.494930 
	C250.271011,50.935905 252.573288,52.522930 252.800995,54.366222 
	C253.199997,57.596287 252.326508,60.983532 251.864075,64.738716 
z"/>
<path fill="#FEF8F5" opacity="1.000000" stroke="none" 
	d="
M130.794250,77.905083 
	C144.916138,85.503143 158.666504,93.251625 172.399704,101.030373 
	C177.608856,103.980934 182.878143,106.844604 187.924850,110.054703 
	C190.513962,111.701561 192.448364,111.616554 195.074066,110.065025 
	C207.954849,102.453835 220.964951,95.061401 233.935974,87.603165 
	C235.345383,86.792763 236.797241,86.056183 239.116562,84.807877 
	C239.116562,89.209084 239.321564,92.945900 238.995300,96.635735 
	C238.893570,97.786148 237.570175,99.177132 236.442581,99.835289 
	C222.369553,108.049469 208.169281,116.047417 194.160080,124.367607 
	C191.512955,125.939758 189.877213,124.903481 187.878967,123.756599 
	C169.573425,113.250160 151.266327,102.746452 132.649414,92.285782 
	C127.893379,88.799675 127.191284,83.593269 130.794250,77.905083 
z"/>
<path fill="#D45D42" opacity="1.000000" stroke="none" 
	d="
M62.955723,206.847809 
	C71.015884,206.755997 71.082893,206.755295 70.994171,198.199905 
	C70.881233,187.309265 73.840416,185.719147 58.902916,186.004608 
	C58.570244,186.010971 58.237522,186.014969 56.981873,186.039017 
	C50.245644,186.034271 44.429794,185.895554 38.619949,186.025314 
	C34.398361,186.119614 30.184700,186.568924 25.967505,186.859924 
	C19.181063,184.650131 16.034870,179.903458 15.915727,172.840988 
	C15.773805,164.428299 15.417540,156.005676 25.905251,152.412018 
	C40.506912,152.824417 54.428608,152.929794 68.350502,152.978683 
	C68.929008,152.980698 69.509361,152.454697 70.088860,152.174698 
	C73.964546,153.508896 77.313797,155.592758 78.212189,159.850845 
	C78.536118,161.386169 77.573784,163.192871 77.198425,164.875732 
	C75.162239,164.291092 71.782135,164.209930 71.339455,163.028305 
	C69.958763,159.342880 67.396385,159.009506 64.311127,159.008041 
	C52.839012,159.002579 41.365734,159.090942 29.895624,158.938568 
	C27.121754,158.901733 25.147350,159.721756 25.108810,162.458252 
	C25.034859,167.709244 25.440813,172.966995 26.120094,178.904099 
	C40.763023,179.736679 54.933533,179.887085 69.104042,180.037506 
	C74.824692,180.253983 78.659355,184.219070 78.941727,190.598282 
	C79.146767,195.230469 79.100716,199.883194 78.943451,204.519211 
	C78.801079,208.716080 74.887177,212.230377 68.965607,213.021378 
	C53.716839,213.028000 39.327957,213.053314 24.939077,213.078629 
	C19.603666,212.119598 16.925480,208.465836 17.277992,202.522095 
	C20.900452,200.986847 23.562748,202.371933 26.141586,205.963409 
	C38.691845,206.684189 50.823784,206.765991 62.955723,206.847809 
z"/>
<path fill="#D85B3F" opacity="1.000000" stroke="none" 
	d="
M279.104858,153.023376 
	C284.308380,151.993637 286.213776,156.035645 288.568329,159.703110 
	C288.627563,160.529633 288.782593,160.892700 288.937622,161.255783 
	C288.937622,161.255783 289.051239,161.499496 288.942200,162.108093 
	C288.880432,176.893707 288.927704,191.070724 288.974945,205.247742 
	C288.974945,205.247742 289.106293,205.438919 288.900116,205.842392 
	C289.349091,206.543030 290.054382,207.174149 290.651428,207.084473 
	C295.380829,206.374039 296.766205,208.556290 295.417908,212.903931 
	C286.887360,212.965378 278.814606,212.907150 270.744934,213.038635 
	C267.532898,213.090973 264.327698,213.563126 261.119385,213.844162 
	C252.380920,213.570206 243.614883,213.616531 234.917343,212.867401 
	C231.349411,212.560089 228.192261,210.284637 228.062195,204.997772 
	C228.092148,189.333740 228.100113,174.521790 228.108078,159.709854 
	C227.869247,154.722458 232.436035,154.394501 235.883347,152.550446 
	C250.720474,152.837830 264.912659,152.930603 279.104858,153.023376 
M237.006210,207.004547 
	C237.006210,207.004547 237.010040,206.975021 237.591049,207.576965 
	C249.989960,207.722641 262.388702,207.890747 274.788055,207.974762 
	C275.871735,207.982101 276.959198,207.436951 278.645081,207.042572 
	C279.117401,206.694962 279.589722,206.347351 280.179291,205.485611 
	C280.477905,205.324600 280.776520,205.163605 281.507965,204.785400 
	C281.760742,204.576965 281.963196,204.327637 282.644226,203.389969 
	C282.745697,190.175568 282.857971,176.961197 282.912292,163.746597 
	C282.914673,163.167236 282.386658,162.585663 281.832825,161.532837 
	C281.521912,161.385239 281.211029,161.237656 280.172546,160.792892 
	C278.573853,160.194748 276.981415,159.098389 275.375458,159.078201 
	C263.772705,158.932388 252.166290,158.933334 240.563782,159.091080 
	C239.000839,159.112350 237.453339,160.270157 235.348679,161.061417 
	C235.147034,161.383301 234.945374,161.705200 234.483002,162.198853 
	C234.296982,162.509491 234.361465,162.768372 234.789703,163.908615 
	C234.787964,175.437332 234.733871,186.966476 234.830200,198.494370 
	C234.848663,200.703796 235.459015,202.908249 235.959549,205.451996 
	C235.959549,205.451996 235.989746,205.825241 236.158569,206.352509 
	C236.448563,206.562714 236.738541,206.772919 237.006210,207.004547 
z"/>
<path fill="#D65D42" opacity="1.000000" stroke="none" 
	d="
M86.959908,161.967346 
	C87.560783,156.879913 90.306252,153.588318 95.901337,152.419937 
	C110.763412,152.823685 124.939583,152.916077 139.115753,153.008469 
	C144.184494,151.941833 145.966080,155.676163 147.934387,159.913727 
	C147.926315,173.446686 147.929413,186.141830 148.032074,198.836136 
	C148.046036,200.565460 148.557510,202.290741 148.838638,204.017899 
	C147.811295,208.998276 145.760117,212.954987 138.964935,213.009918 
	C124.390785,213.020248 110.678986,213.051361 96.967186,213.082489 
	C90.742363,212.642014 88.900749,210.943085 87.051125,203.020538 
	C87.064026,188.766647 87.011971,175.366989 86.959908,161.967346 
M140.250687,160.787262 
	C138.269577,160.192032 136.295639,159.111298 134.306183,159.081955 
	C123.052849,158.916000 111.794136,158.905167 100.541588,159.096207 
	C98.634232,159.128586 96.747879,160.397766 94.282524,161.687180 
	C94.182030,174.503937 94.052055,187.320602 94.018433,200.137527 
	C94.014236,201.735214 94.520355,203.334229 95.153664,205.676270 
	C98.450089,206.070694 101.746521,206.465103 105.967384,206.964874 
	C115.921547,207.002548 125.875908,207.080963 135.829636,207.031265 
	C137.225159,207.024307 138.617538,206.389343 140.162094,205.486969 
	C140.488922,205.013794 140.815750,204.540634 141.696518,203.426239 
	C141.793900,190.027100 141.907059,176.627991 141.945099,163.228683 
	C141.947144,162.509567 141.317657,161.788651 140.250687,160.787262 
z"/>
<path fill="#D65B3F" opacity="1.000000" stroke="none" 
	d="
M312.973145,186.088013 
	C312.506775,186.081360 312.040375,186.074707 310.996155,186.285446 
	C310.225128,187.006195 310.031982,187.509537 309.584290,188.337524 
	C309.483398,196.457321 309.637024,204.252472 309.849060,212.293854 
	C309.911041,212.708725 309.914642,212.877380 309.918274,213.046051 
	C307.738098,213.274323 305.557953,213.502609 303.203247,212.914337 
	C303.024200,205.276642 302.971924,198.455124 303.025452,191.634430 
	C303.128479,178.503326 303.291412,165.372711 303.429504,152.241882 
	C305.234619,152.171570 307.039703,152.101273 309.332886,152.572571 
	C309.867249,160.272064 309.849182,167.431396 310.012177,174.586624 
	C310.046234,176.079559 310.749268,177.557266 311.144012,179.041992 
	C311.144012,179.041992 311.484650,178.991623 311.985626,179.330627 
	C326.815735,179.772293 341.144836,179.885147 355.474152,179.940674 
	C356.050964,179.942902 356.629852,179.402893 357.207794,179.115509 
	C357.207794,179.115509 357.491516,178.998703 358.032898,178.826721 
	C358.788940,170.182907 359.003601,161.711075 359.636353,153.197876 
	C361.607391,153.261932 363.160370,153.367371 364.905701,153.485870 
	C364.905701,174.028503 364.905701,193.931473 364.905701,213.834442 
	C363.236328,213.874985 361.566925,213.915543 359.474121,213.432526 
	C359.042358,207.131790 359.141235,201.351654 358.980011,195.578766 
	C358.900940,192.747940 358.339020,189.930603 357.995636,187.107147 
	C356.587982,186.750778 355.180328,186.394409 352.931976,186.019424 
	C339.051910,186.029877 326.012512,186.058945 312.973145,186.088013 
z"/>
<path fill="#DA5A3E" opacity="1.000000" stroke="none" 
	d="
M166.963120,213.072525 
	C161.795441,213.172577 158.633011,210.548935 157.405106,205.111511 
	C157.832458,188.182755 157.915527,171.918762 157.950134,155.654648 
	C157.951401,155.063309 157.476700,154.470963 157.223801,153.879074 
	C159.333038,153.350143 161.442276,152.821213 163.746338,153.091248 
	C163.957016,169.125168 163.948212,184.360245 164.022125,199.594910 
	C164.030685,201.360977 164.498108,203.124802 164.752808,204.889664 
	C164.813232,205.060944 164.873688,205.232239 165.073303,205.907623 
	C165.485794,206.610214 165.759109,206.808670 166.032425,207.007126 
	C166.032425,207.007126 165.988541,207.013107 166.270081,207.283463 
	C179.454636,207.708145 192.357407,207.895386 205.260818,208.003342 
	C212.014862,208.059845 212.967804,207.058838 212.978546,200.168945 
	C212.999588,186.674973 212.883896,173.179306 213.102921,159.688843 
	C213.132858,157.845428 214.757889,156.027924 215.644409,154.198425 
	C216.421051,155.964630 217.844223,157.721130 217.870880,159.498581 
	C218.063126,172.323318 217.930878,185.152603 218.021530,197.979599 
	C218.033661,199.697922 218.719238,201.411484 219.092972,203.127258 
	C218.248337,208.022934 216.920547,212.515594 209.971786,213.018875 
	C195.064178,213.026398 181.013657,213.049454 166.963120,213.072525 
z"/>
<path fill="#FEF7F3" opacity="1.000000" stroke="none" 
	d="
M217.834732,29.751646 
	C215.601837,30.678940 213.190140,30.833164 211.296799,31.903944 
	C198.563492,39.105247 185.820541,46.305759 173.349625,53.945492 
	C169.271057,56.444031 166.037674,56.999664 162.236191,53.966995 
	C160.571732,52.639149 158.549011,51.760391 155.909668,50.224102 
	C162.971176,46.131546 169.537323,42.382515 176.047729,38.539021 
	C184.755753,33.398125 193.420563,28.183996 202.078003,22.659840 
	C209.191696,20.523529 213.636414,24.755745 217.834732,29.751646 
z"/>
<path fill="#C5705C" opacity="1.000000" stroke="none" 
	d="
M219.443359,202.896637 
	C218.719238,201.411484 218.033661,199.697922 218.021530,197.979599 
	C217.930878,185.152603 218.063126,172.323318 217.870880,159.498581 
	C217.844223,157.721130 216.421051,155.964630 215.644409,154.198425 
	C214.757889,156.027924 213.132858,157.845428 213.102921,159.688843 
	C212.883896,173.179306 212.999588,186.674973 212.978546,200.168945 
	C212.967804,207.058838 212.014862,208.059845 205.260818,208.003342 
	C192.357407,207.895386 179.454636,207.708145 166.268448,207.261383 
	C173.394409,206.630234 180.800568,206.172089 188.213547,205.989716 
	C194.400665,205.837509 200.600891,206.151505 206.783508,205.929901 
	C208.227875,205.878128 209.624527,204.494781 211.400055,203.032990 
	C211.815170,191.232452 211.873352,180.122986 211.931534,169.013535 
	C211.511337,163.499893 211.091141,157.986267 210.676529,152.545929 
	C219.874512,151.257889 220.181549,151.402161 220.023071,159.281052 
	C219.867645,167.007767 219.212845,174.726822 219.149780,182.452286 
	C219.094803,189.187988 219.558960,195.927933 219.443359,202.896637 
z"/>
<path fill="#C88B7A" opacity="1.000000" stroke="none" 
	d="
M365.314941,213.743378 
	C364.905701,193.931473 364.905701,174.028503 364.905701,153.485870 
	C363.160370,153.367371 361.607391,153.261932 359.571533,152.935089 
	C359.076874,152.534821 359.065094,152.355942 359.053345,152.177048 
	C367.203766,151.763550 368.165436,154.638031 367.163483,165.082550 
	C366.119812,175.961685 367.057800,187.020950 366.878876,197.997375 
	C366.793732,203.220566 366.127319,208.434311 365.314941,213.743378 
z"/>
<path fill="#FFEFE2" opacity="1.000000" stroke="none" 
	d="
M302.952179,152.164658 
	C303.291412,165.372711 303.128479,178.503326 303.025452,191.634430 
	C302.971924,198.455124 303.024200,205.276642 303.019165,212.569061 
	C302.673737,212.061630 302.048004,211.083862 302.044830,210.104080 
	C301.984161,191.389923 301.992065,172.675522 302.014343,153.961212 
	C302.015106,153.336441 302.314606,152.712021 302.952179,152.164658 
z"/>
<path fill="#F4A999" opacity="1.000000" stroke="none" 
	d="
M164.837524,204.434143 
	C164.498108,203.124802 164.030685,201.360977 164.022125,199.594910 
	C163.948212,184.360245 163.957016,169.125168 163.921463,153.415710 
	C164.267532,154.073730 164.948441,155.205399 164.951614,156.338959 
	C164.995972,172.218689 164.947861,188.098694 164.837524,204.434143 
z"/>
<path fill="#F4AA98" opacity="1.000000" stroke="none" 
	d="
M157.126144,154.353745 
	C157.476700,154.470963 157.951401,155.063309 157.950134,155.654648 
	C157.915527,171.918762 157.832458,188.182755 157.462921,204.753357 
	C157.121750,188.316101 157.075119,171.572250 157.126144,154.353745 
z"/>
<path fill="#F3AB99" opacity="1.000000" stroke="none" 
	d="
M149.012131,203.651932 
	C148.557510,202.290741 148.046036,200.565460 148.032074,198.836136 
	C147.929413,186.141830 147.926315,173.446686 147.907166,160.264297 
	C148.334549,162.735718 149.012207,165.685822 149.110855,168.655167 
	C149.464386,179.296158 149.639252,189.943329 149.822021,200.589203 
	C149.837402,201.484222 149.408264,202.386871 149.012131,203.651932 
z"/>
<path fill="#C28C7F" opacity="1.000000" stroke="none" 
	d="
M356.718628,179.069916 
	C356.629852,179.402893 356.050964,179.942902 355.474152,179.940674 
	C341.144836,179.885147 326.815735,179.772293 312.145264,179.395020 
	C326.612457,179.088379 341.420929,179.056351 356.718628,179.069916 
z"/>
<path fill="#FFCDBE" opacity="1.000000" stroke="none" 
	d="
M227.703430,159.935257 
	C228.100113,174.521790 228.092148,189.333740 228.076355,204.621750 
	C227.713043,204.633392 227.045929,204.168015 227.047318,203.704666 
	C227.091034,189.189880 227.199890,174.675278 227.703430,159.935257 
z"/>
<path fill="#FFC9B5" opacity="1.000000" stroke="none" 
	d="
M25.148209,213.462952 
	C39.327957,213.053314 53.716839,213.028000 68.575806,213.035339 
	C68.377403,213.377380 67.708977,213.956223 67.040421,213.956375 
	C53.146072,213.959473 39.251705,213.896881 25.148209,213.462952 
z"/>
<path fill="#B49183" opacity="1.000000" stroke="none" 
	d="
M69.616570,152.089371 
	C69.509361,152.454697 68.929008,152.980698 68.350502,152.978683 
	C54.428608,152.929794 40.506912,152.824417 26.257559,152.460175 
	C40.334717,152.128738 54.739498,152.066391 69.616570,152.089371 
z"/>
<path fill="#FFC7B3" opacity="1.000000" stroke="none" 
	d="
M167.173431,213.453766 
	C181.013657,213.049454 195.064178,213.026398 209.585236,213.035004 
	C209.382629,213.377090 208.709488,213.958008 208.036377,213.957962 
	C194.485504,213.957047 180.934631,213.889297 167.173431,213.453766 
z"/>
<path fill="#FFF5ED" opacity="1.000000" stroke="none" 
	d="
M289.362793,205.013229 
	C288.927704,191.070724 288.880432,176.893707 288.890930,162.232391 
	C289.297424,162.410477 289.950958,163.073364 289.949890,163.735199 
	C289.928162,177.416458 289.832001,191.097565 289.362793,205.013229 
z"/>
<path fill="#C18C80" opacity="1.000000" stroke="none" 
	d="
M68.888367,179.648178 
	C54.933533,179.887085 40.763023,179.736679 26.298180,179.288559 
	C40.226795,179.080185 54.449745,179.169510 68.888367,179.648178 
z"/>
<path fill="#B49183" opacity="1.000000" stroke="none" 
	d="
M278.877930,152.643097 
	C264.912659,152.930603 250.720474,152.837830 236.209534,152.457031 
	C250.144180,152.200287 264.397583,152.231552 278.877930,152.643097 
z"/>
<path fill="#B49183" opacity="1.000000" stroke="none" 
	d="
M138.893280,152.624603 
	C124.939583,152.916077 110.763412,152.823685 96.258148,152.464188 
	C110.176300,152.211639 124.423553,152.226181 138.893280,152.624603 
z"/>
<path fill="#FFC9B5" opacity="1.000000" stroke="none" 
	d="
M97.173088,213.466095 
	C110.678986,213.051361 124.390785,213.020248 138.572754,213.021729 
	C138.383133,213.369614 137.723404,213.959457 137.063492,213.959656 
	C123.835342,213.963730 110.607162,213.899872 97.173088,213.466095 
z"/>
<path fill="#FFF2E8" opacity="1.000000" stroke="none" 
	d="
M86.569214,162.165924 
	C87.011971,175.366989 87.064026,188.766647 87.055695,202.639008 
	C86.665215,202.447662 86.047546,201.783600 86.047569,201.119568 
	C86.048088,188.201218 86.120697,175.282867 86.569214,162.165924 
z"/>
<path fill="#FFC6B2" opacity="1.000000" stroke="none" 
	d="
M313.183411,186.467773 
	C326.012512,186.058945 339.051910,186.029877 352.559937,186.037598 
	C352.193939,186.381836 351.359406,186.956116 350.524475,186.956680 
	C338.147552,186.964996 325.770599,186.897263 313.183411,186.467773 
z"/>
<path fill="#CEB1A8" opacity="1.000000" stroke="none" 
	d="
M62.724720,206.496063 
	C50.823784,206.765991 38.691845,206.684189 26.259304,206.301331 
	C38.137043,206.048309 50.315380,206.096313 62.724720,206.496063 
z"/>
<path fill="#FFC6B6" opacity="1.000000" stroke="none" 
	d="
M261.576843,213.902115 
	C264.327698,213.563126 267.532898,213.090973 270.744934,213.038635 
	C278.814606,212.907150 286.887360,212.965378 295.710449,212.952423 
	C296.658447,212.976089 296.854919,212.994888 297.051392,213.013672 
	C295.747589,213.343262 294.445526,213.950348 293.139709,213.958496 
	C282.771637,214.023239 272.402893,213.974182 261.576843,213.902115 
z"/>
<path fill="#FFFF80" opacity="1.000000" stroke="none" 
	d="
M211.542633,169.206055 
	C211.873352,180.122986 211.815170,191.232452 211.461639,202.629852 
	C211.162094,191.744736 211.157913,180.571655 211.542633,169.206055 
z"/>
<path fill="#FFC4AE" opacity="1.000000" stroke="none" 
	d="
M26.437740,186.926529 
	C30.184700,186.568924 34.398361,186.119614 38.619949,186.025314 
	C44.429794,185.895554 50.245644,186.034271 56.525711,186.080200 
	C54.347847,186.401413 51.706600,186.916245 49.057880,186.958099 
	C41.676239,187.074753 34.291492,186.995209 26.437740,186.926529 
z"/>
<path fill="#FFE8DB" opacity="1.000000" stroke="none" 
	d="
M309.838837,188.012878 
	C310.031982,187.509537 310.225128,187.006195 310.663452,186.395966 
	C310.858673,195.099701 310.808655,203.910294 310.338470,212.883469 
	C309.914642,212.877380 309.911041,212.708725 309.929932,211.824509 
	C309.914581,203.410248 309.876709,195.711563 309.838837,188.012878 
z"/>
<path fill="#FFCEC5" opacity="1.000000" stroke="none" 
	d="
M358.002441,187.565826 
	C358.339020,189.930603 358.900940,192.747940 358.980011,195.578766 
	C359.141235,201.351654 359.042358,207.131790 359.061096,213.363892 
	C358.714020,212.587036 358.062958,211.358994 358.047180,210.122833 
	C357.953125,202.757751 358.005798,195.390823 358.002441,187.565826 
z"/>
<path fill="#FFECDD" opacity="1.000000" stroke="none" 
	d="
M311.071564,178.573944 
	C310.749268,177.557266 310.046234,176.079559 310.012177,174.586624 
	C309.849182,167.431396 309.867249,160.272064 309.707977,152.676453 
	C310.063232,153.321045 310.919952,154.397278 310.937073,155.486694 
	C311.055573,163.024887 310.999298,170.565826 311.071564,178.573944 
z"/>
<path fill="#FFCEC5" opacity="1.000000" stroke="none" 
	d="
M358.624023,152.280716 
	C359.065094,152.355942 359.076874,152.534821 359.153442,152.976471 
	C359.003601,161.711075 358.788940,170.182907 358.182434,178.860886 
	C357.925293,170.172821 358.059998,161.278610 358.624023,152.280716 
z"/>
<path fill="#D88C7C" opacity="1.000000" stroke="none" 
	d="
M297.400146,212.808487 
	C296.854919,212.994888 296.658447,212.976089 296.169434,212.908783 
	C296.766205,208.556290 295.380829,206.374039 290.651428,207.084473 
	C290.054382,207.174149 289.349091,206.543030 288.862183,205.951996 
	C289.990051,205.756241 290.948364,205.923126 291.909485,205.941299 
	C298.237396,206.060928 298.237579,206.050476 297.400146,212.808487 
z"/>
<path fill="#C5705C" opacity="1.000000" stroke="none" 
	d="
M165.945908,206.757935 
	C165.759109,206.808670 165.485794,206.610214 165.103760,206.178375 
	C165.283157,206.132935 165.571274,206.320847 165.945908,206.757935 
z"/>
<path fill="#D88C7C" opacity="1.000000" stroke="none" 
	d="
M288.971436,160.907913 
	C288.782593,160.892700 288.627563,160.529633 288.656860,160.023544 
	C288.895874,160.107040 288.950562,160.333542 288.971436,160.907913 
z"/>
<path fill="#000000" opacity="1.000000" stroke="none" 
	d="
M281.075195,205.002594 
	C280.776520,205.163605 280.477905,205.324600 279.645569,205.757187 
	C265.081360,206.078629 251.050858,206.128494 236.766251,206.079712 
	C236.338013,205.929123 236.163879,205.877182 235.989746,205.825241 
	C235.989746,205.825241 235.959549,205.451996 235.962433,204.805023 
	C235.943100,189.739243 235.920898,175.320465 235.898697,160.901672 
	C237.453339,160.270157 239.000839,159.112350 240.563782,159.091080 
	C252.166290,158.933334 263.772705,158.932388 275.375458,159.078201 
	C276.981415,159.098389 278.573853,160.194748 280.591614,161.397736 
	C281.032166,176.335922 281.053680,190.669266 281.075195,205.002594 
z"/>
<path fill="#FFF1E7" opacity="1.000000" stroke="none" 
	d="
M235.623688,160.981537 
	C235.920898,175.320465 235.943100,189.739243 235.880798,204.636520 
	C235.459015,202.908249 234.848663,200.703796 234.830200,198.494370 
	C234.733871,186.966476 234.787964,175.437332 234.814407,163.209595 
	C234.839111,162.510574 234.743698,162.027084 234.743713,162.027100 
	C234.945374,161.705200 235.147034,161.383301 235.623688,160.981537 
z"/>
<path fill="#FFE6DD" opacity="1.000000" stroke="none" 
	d="
M281.291565,204.894012 
	C281.053680,190.669266 281.032166,176.335922 280.955383,161.546326 
	C281.211029,161.237656 281.521912,161.385239 281.915924,162.234741 
	C282.037811,176.636917 282.076569,190.337173 282.115356,204.037430 
	C281.963196,204.327637 281.760742,204.576965 281.291565,204.894012 
z"/>
<path fill="#CFB3AA" opacity="1.000000" stroke="none" 
	d="
M237.020355,206.178345 
	C251.050858,206.128494 265.081360,206.078629 279.586975,206.014252 
	C279.589722,206.347351 279.117401,206.694962 277.875793,207.028397 
	C263.741028,207.001160 250.375534,206.988098 237.010040,206.975037 
	C237.010040,206.975021 237.006210,207.004547 237.022079,206.792587 
	C237.037949,206.580627 237.020355,206.178345 237.020355,206.178345 
z"/>
<path fill="#BE705E" opacity="1.000000" stroke="none" 
	d="
M282.379791,203.713699 
	C282.076569,190.337173 282.037811,176.636917 282.052368,162.470886 
	C282.386658,162.585663 282.914673,163.167236 282.912292,163.746597 
	C282.857971,176.961197 282.745697,190.175568 282.379791,203.713699 
z"/>
<path fill="#BE705E" opacity="1.000000" stroke="none" 
	d="
M237.300537,207.276001 
	C250.375534,206.988098 263.741028,207.001160 277.575684,207.081329 
	C276.959198,207.436951 275.871735,207.982101 274.788055,207.974762 
	C262.388702,207.890747 249.989960,207.722641 237.300537,207.276001 
z"/>
<path fill="#BE705E" opacity="1.000000" stroke="none" 
	d="
M236.766251,206.079712 
	C237.020355,206.178345 237.037949,206.580627 237.033234,206.781876 
	C236.738541,206.772919 236.448563,206.562714 236.074158,206.088867 
	C236.163879,205.877182 236.338013,205.929123 236.766251,206.079712 
z"/>
<path fill="#BE705E" opacity="1.000000" stroke="none" 
	d="
M234.613342,162.112976 
	C234.743698,162.027084 234.839111,162.510574 234.757782,162.743042 
	C234.361465,162.768372 234.296982,162.509491 234.613342,162.112976 
z"/>
<path fill="#000000" opacity="1.000000" stroke="none" 
	d="
M141.142578,204.067459 
	C140.815750,204.540634 140.488922,205.013794 139.616852,205.764099 
	C129.923660,206.026733 120.775246,205.957428 111.628136,206.037552 
	C109.430840,206.056808 107.237892,206.572266 105.042946,206.859528 
	C101.746521,206.465103 98.450089,206.070694 95.047958,204.842896 
	C94.912109,189.704849 94.881966,175.400177 94.851814,161.095520 
	C96.747879,160.397766 98.634232,159.128586 100.541588,159.096207 
	C111.794136,158.905167 123.052849,158.916000 134.306183,159.081955 
	C136.295639,159.111298 138.269577,160.192032 140.637970,161.388580 
	C141.064377,176.015747 141.103470,190.041611 141.142578,204.067459 
z"/>
<path fill="#FFC8BA" opacity="1.000000" stroke="none" 
	d="
M94.567169,161.391342 
	C94.881966,175.400177 94.912109,189.704849 94.866135,204.471069 
	C94.520355,203.334229 94.014236,201.735214 94.018433,200.137527 
	C94.052055,187.320602 94.182030,174.503937 94.567169,161.391342 
z"/>
<path fill="#F2A796" opacity="1.000000" stroke="none" 
	d="
M141.419556,203.746857 
	C141.103470,190.041611 141.064377,176.015747 141.003708,161.529236 
	C141.317657,161.788651 141.947144,162.509567 141.945099,163.228683 
	C141.907059,176.627991 141.793900,190.027100 141.419556,203.746857 
z"/>
<path fill="#D0B1A8" opacity="1.000000" stroke="none" 
	d="
M105.505165,206.912201 
	C107.237892,206.572266 109.430840,206.056808 111.628136,206.037552 
	C120.775246,205.957428 129.923660,206.026733 139.541504,206.043137 
	C138.617538,206.389343 137.225159,207.024307 135.829636,207.031265 
	C125.875908,207.080963 115.921547,207.002548 105.505165,206.912201 
z"/>
<path fill="#B26755" opacity="1.000000" stroke="none" 
	d="
M309.584290,188.337524 
	C309.876709,195.711563 309.914581,203.410248 309.871582,211.578278 
	C309.637024,204.252472 309.483398,196.457321 309.584290,188.337524 
z"/>
</svg>